<mxfile host="app.diagrams.net" modified="2023-04-06T07:07:37.688Z" agent="Mozilla/5.0 (X11; Linux x86_64) AppleWebKit/537.36 (KHTML, like Gecko) Chrome/112.0.0.0 Safari/537.36 Edg/112.0.0.0" version="21.1.4" etag="xQZHc6_YAZ6pJBQOB78T" type="github">
  <diagram name="Page-1" id="CQBP3Z4P8ZewOoyASfiG">
    <mxGraphModel>
      <root>
        <mxCell id="0" />
        <mxCell id="1" parent="0" />
      </root>
    </mxGraphModel>
  </diagram>
</mxfile>
